<?xml version="1.0" encoding="iso-8859-1"?>
<!-- TODO: make a credits page -->
<!-- Icons made by <a href="https://www.flaticon.com/authors/twitter" title="Twitter">Twitter</a> from <a href="https://www.flaticon.com/" title="Flaticon">www.flaticon.com</a> is licensed by <a href="http://creativecommons.org/licenses/by/3.0/" title="Creative Commons BY 3.0" target="_blank">CC 3.0 BY</a> -->
<svg version="1.1" id="Capa_1" xmlns="http://www.w3.org/2000/svg" xmlns:xlink="http://www.w3.org/1999/xlink" x="0px" y="0px"
	 viewBox="0 0 512.001 512.001" style="enable-background:new 0 0 512.001 512.001;" xml:space="preserve">
<path style="fill:#66757F;" d="M329.37,243.454l14.32-14.32c0,0,14.32-14.32,28.64,0l28.64,28.64c0,0,14.32,14.32,0,28.64
	l-14.32,14.32L329.37,243.454z"/>
<path style="fill:#8899A6;" d="M499.475,399.239c16.697,16.697,16.697,44.048,0,60.745l-39.494,39.494
	c-16.697,16.697-44.048,16.697-60.745,0L130.623,230.865c-16.697-16.697-16.697-44.048,0-60.745l39.494-39.494
	c16.697-16.697,44.048-16.697,60.745,0L499.475,399.239z"/>
<path style="fill:#66757F;" d="M298.997,155.8c16.697,16.697,16.697,44.048,0,60.745l-82.454,82.454
	c-16.697,16.697-44.048,16.697-60.745,0l-69.866-69.866c0,0-14.32-14.32,0-28.64L200.491,85.934c14.32-14.32,28.64,0,28.64,0
	L298.997,155.8z"/>
<path style="fill:#8899A6;" d="M100.252,243.454l143.199-143.199l28.64,28.64L128.892,272.093L100.252,243.454z"/>
<g>
	<path style="fill:#FFCC4D;" d="M157.545,85.935c-5.255,0-10.31-2.892-12.831-7.919l-28.64-57.28
		c-3.537-7.074-0.659-15.666,6.416-19.217s15.666-0.659,19.217,6.416l28.625,57.28c3.552,7.074,0.673,15.666-6.401,19.217
		C161.884,85.447,159.693,85.935,157.545,85.935"/>
	<path style="fill:#FFCC4D;" d="M71.598,171.854c-2.148,0-4.339-0.486-6.387-1.504l-57.28-28.64
		c-7.074-3.552-9.952-12.143-6.416-19.217c3.552-7.074,12.129-9.952,19.217-6.416l57.28,28.64
		c7.074,3.537,9.952,12.143,6.416,19.217C81.908,168.961,76.853,171.854,71.598,171.854"/>
	<path style="fill:#FFCC4D;" d="M114.572,128.895c-3.666,0-7.332-1.404-10.124-4.196l-57.28-57.28c-5.599-5.6-5.599-14.649,0-20.248
		c5.599-5.599,14.649-5.599,20.248,0l57.28,57.28c5.599,5.6,5.599,14.649,0,20.248C121.903,127.491,118.237,128.895,114.572,128.895
		"/>
</g>
</svg>
